<svg xmlns="http://www.w3.org/2000/svg" version="1.1" xmlns:xlink="http://www.w3.org/1999/xlink" xmlns:svgjs="http://svgjs.dev/svgjs" width="1920" height="1080" preserveAspectRatio="none" viewBox="0 0 1920 1080"><g mask="url(&quot;#SvgjsMask1163&quot;)" fill="none"><rect width="1920" height="1080" x="0" y="0" fill="rgba(250, 250, 250, 1)"></rect><path d="M1431.6214964550277 87.42616293009637L1316.3679959805306 372.6885867647329 1601.6304198151672 487.94208723923 1716.8839202896643 202.67966340459344z" fill="rgba(1, 173, 238, 0.32)" class="triangle-float2"></path><path d="M1612.9864332305033 930.8156867466294L1476.5349169203346 794.3641704364605 1340.0834006101657 930.8156867466294 1476.5349169203346 1067.2672030567983z" fill="rgba(1, 173, 238, 0.32)" class="triangle-float3"></path><path d="M1028.7082464829018 197.74372793719203L1261.1629182949555 213.99854205838392 1277.4177324161474-18.45612975366987 1044.9630606040937-34.710943874861755z" fill="rgba(1, 173, 238, 0.32)" class="triangle-float1"></path><path d="M914.5624908860347 732.3163524044191L1090.071047579094 675.2901654774344 1033.0448606521095 499.78160878437495 857.53630395905 556.8077957113596z" fill="rgba(1, 173, 238, 0.32)" class="triangle-float1"></path><path d="M-16.668840623008727 945.4571429507857L76.5105726780408 1201.465476953449 332.5189066807041 1108.2860636523997 239.3394933796546 852.2777296497362z" fill="rgba(1, 173, 238, 0.32)" class="triangle-float3"></path><path d="M1043.022780331513 653.5258705504499L1188.6850979971014 473.64788865090975 1008.8071160975611 327.9855709853216 863.144798431973 507.86355288486175z" fill="rgba(1, 173, 238, 0.32)" class="triangle-float1"></path><path d="M118.62652225630562 648.2067988126998L293.98130197830676 753.5705803059029 399.34508347150984 578.2158005839018 223.9903037495087 472.8520190906987z" fill="rgba(1, 173, 238, 0.32)" class="triangle-float2"></path><path d="M524.7335748213619 315.04626855848915L736.8377374105798 329.87803644830115 751.6695053003918 117.77387385908315 539.5653427111739 102.94210596927118z" fill="rgba(1, 173, 238, 0.32)" class="triangle-float1"></path><path d="M358.2417658097767 46.957849659554796L443.99601112574896 282.56570228756095 679.6038637537551 196.81145697158868 593.8496184377829-38.79639565641743z" fill="rgba(1, 173, 238, 0.32)" class="triangle-float1"></path><path d="M25.909488186691846 989.2676524109906L245.98317230428276 753.2675196634301 9.983039556722247 533.1938355458392-210.09064456086867 769.1939682933997z" fill="rgba(1, 173, 238, 0.32)" class="triangle-float1"></path></g><defs><mask id="SvgjsMask1163"><rect width="1920" height="1080" fill="#ffffff"></rect></mask><style>
                @keyframes float1 {
                    0%{transform: translate(0, 0)}
                    50%{transform: translate(-10px, 0)}
                    100%{transform: translate(0, 0)}
                }

                .triangle-float1 {
                    animation: float1 5s infinite;
                }

                @keyframes float2 {
                    0%{transform: translate(0, 0)}
                    50%{transform: translate(-5px, -5px)}
                    100%{transform: translate(0, 0)}
                }

                .triangle-float2 {
                    animation: float2 4s infinite;
                }

                @keyframes float3 {
                    0%{transform: translate(0, 0)}
                    50%{transform: translate(0, -10px)}
                    100%{transform: translate(0, 0)}
                }

                .triangle-float3 {
                    animation: float3 6s infinite;
                }
            </style></defs></svg>